<svg width="303" height="235" viewBox="0 0 303 235" fill="none" xmlns="http://www.w3.org/2000/svg">
<g clip-path="url(#clip0_18_2)">
<mask id="mask0_18_2" style="mask-type:luminance" maskUnits="userSpaceOnUse" x="0" y="0" width="1366" height="235">
<path d="M1366 0H0V235H1366V0Z" fill="white"/>
</mask>
<g mask="url(#mask0_18_2)">
<path d="M196.918 31.0278V122.858C205.312 115.392 213.608 107.471 221.741 99.1512V33.8627C221.741 32.2959 220.473 31.0278 218.909 31.0278H196.918Z" fill="#2ECE76"/>
<path d="M159.388 56.7358H57.8924C56.5642 56.7358 55.49 55.6623 55.49 54.3352C55.49 53.0081 56.5642 51.9311 57.8924 51.9311H159.388C160.711 51.9311 161.788 53.0081 161.788 54.3352C161.788 55.6623 160.711 56.7358 159.388 56.7358ZM159.388 73.1578H57.8924C56.5642 73.1578 55.49 72.0808 55.49 70.7537C55.49 69.4266 56.5642 68.3531 57.8924 68.3531H159.388C160.711 68.3531 161.788 69.4266 161.788 70.7537C161.788 72.0808 160.711 73.1578 159.388 73.1578ZM159.388 89.5763H57.8924C56.5642 89.5763 55.49 88.5028 55.49 87.1757C55.49 85.8486 56.5642 84.7716 57.8924 84.7716H159.388C160.711 84.7716 161.788 85.8486 161.788 87.1757C161.788 88.5028 160.711 89.5763 159.388 89.5763ZM27.5674 1.83137V192.405C68.8805 206.451 131.057 179.176 189.71 129.132V1.83137C189.71 0.268037 188.442 -1 186.878 -1H30.3995C28.8355 -1 27.5674 0.268037 27.5674 1.83137Z" fill="#1958A7"/>
<path d="M196.918 207.983H181.462C165.196 218.575 149.024 226.924 133.419 232.805H218.909C220.473 232.805 221.741 231.537 221.741 229.974V177.213C213.524 184.436 205.232 191.127 196.918 197.251V207.983Z" fill="#2ECE76"/>
<path d="M189.71 200.778V188.747C183.922 193.034 178.127 197.046 172.343 200.778H189.71ZM196.918 183.251V197.251C205.232 191.127 213.524 184.436 221.741 177.213V162.066C213.545 169.667 205.253 176.74 196.918 183.251ZM97.6318 232.805H133.419C149.024 226.924 165.196 218.575 181.462 207.983H160.583C138.816 220.611 117.445 229.067 97.6318 232.805Z" fill="#00AD7F"/>
<path d="M302.649 34.2515L228.665 65.2681L248.328 79.5222C169.595 171.144 66.6433 226.854 15.5969 188.768C9.50927 184.227 4.31898 178.745 0 172.45C4.48921 192.985 14.0252 209.664 28.894 220.757C84.9698 262.599 195.64 209.123 276.075 101.315C276.35 100.95 276.61 100.582 276.881 100.22L296.19 114.214L302.649 34.2515Z" fill="#2ECE76"/>
</g>
</g>
<defs>
<clipPath id="clip0_18_2">
<rect width="303" height="235" fill="white"/>
</clipPath>
</defs>
</svg>
