<svg width="1417" height="282" viewBox="0 0 1417 282" fill="none" xmlns="http://www.w3.org/2000/svg">
<path d="M458.153 142.104C453.298 142.104 449.454 141.037 446.622 138.903C443.826 136.77 441.821 133.551 440.607 129.248C439.43 124.944 438.842 119.555 438.842 113.081V70.2646C438.842 64.6735 439.394 59.818 440.497 55.6982C441.601 51.5785 443.569 48.3783 446.401 46.0977C449.233 43.8171 453.243 42.6768 458.429 42.6768C462.328 42.6768 465.51 43.3389 467.975 44.6631C470.439 45.9505 472.333 47.8081 473.658 50.2358C475.019 52.6268 475.957 55.5143 476.472 58.8984C476.987 62.2826 477.244 66.0713 477.244 70.2646V113.081C477.244 119.555 476.656 124.944 475.479 129.248C474.338 133.551 472.37 136.77 469.575 138.903C466.816 141.037 463.009 142.104 458.153 142.104ZM458.153 132.282C460.25 132.282 461.85 131.694 462.954 130.517C464.057 129.303 464.811 127.298 465.216 124.502C465.62 121.707 465.823 117.937 465.823 113.191V69.6025C465.823 63.7907 465.363 59.487 464.443 56.6914C463.524 53.8958 461.519 52.498 458.429 52.498C455.229 52.498 453.059 53.8958 451.918 56.6914C450.815 59.4502 450.263 63.7355 450.263 69.5474V113.191C450.263 117.973 450.465 121.762 450.87 124.558C451.275 127.316 452.047 129.303 453.188 130.517C454.328 131.694 455.983 132.282 458.153 132.282ZM510.515 142.159C505.733 142.159 501.926 141.221 499.094 139.345C496.298 137.432 494.293 134.544 493.08 130.682C491.866 126.82 491.259 121.946 491.259 116.061V43.8906H502.68V115.785C502.68 119.279 502.809 122.277 503.066 124.778C503.324 127.28 504.004 129.192 505.108 130.517C506.211 131.841 508.014 132.503 510.515 132.503C513.053 132.503 514.856 131.841 515.922 130.517C516.989 129.192 517.633 127.298 517.854 124.833C518.111 122.332 518.24 119.334 518.24 115.84V43.8906H529.606V116.061C529.606 121.946 529.017 126.82 527.84 130.682C526.663 134.544 524.677 137.432 521.881 139.345C519.123 141.221 515.334 142.159 510.515 142.159ZM548.752 141V53.3809H538.048V43.8906H570.105V53.3809H560.118V141H548.752ZM595.1 142.104C591.164 142.104 587.964 141.405 585.499 140.007C583.035 138.572 581.14 136.549 579.816 133.938C578.492 131.326 577.572 128.254 577.057 124.723C576.579 121.155 576.34 117.219 576.34 112.916V103.48H587.43V113.357C587.43 120.162 587.908 125.036 588.865 127.979C589.858 130.884 591.973 132.337 595.21 132.337C597.454 132.337 599.091 131.822 600.121 130.792C601.187 129.726 601.868 128.034 602.162 125.716C602.456 123.399 602.604 120.346 602.604 116.557C602.604 112.217 601.831 108.483 600.286 105.356C598.778 102.23 596.589 99.2319 593.72 96.3628L587.375 90.0176C585.536 88.1416 583.733 86.1001 581.968 83.8931C580.202 81.6493 578.731 79.1112 577.554 76.2788C576.413 73.4465 575.843 70.2095 575.843 66.5679C575.843 61.6756 576.358 57.4455 577.388 53.8774C578.418 50.3094 580.294 47.5506 583.016 45.6011C585.738 43.6515 589.6 42.6768 594.603 42.6768C598.539 42.6768 601.684 43.3573 604.038 44.7183C606.429 46.0793 608.213 48.0288 609.39 50.5669C610.604 53.0682 611.395 56.0477 611.763 59.5054C612.167 62.9631 612.37 66.7886 612.37 70.9819V76.7202H601.445V70.2095C601.445 66.2736 601.279 62.9998 600.948 60.3882C600.654 57.7397 600.029 55.7534 599.072 54.4292C598.116 53.105 596.626 52.4429 594.603 52.4429C592.764 52.4429 591.256 52.9027 590.079 53.8223C588.938 54.7051 588.111 56.0845 587.596 57.9604C587.081 59.8364 586.823 62.2458 586.823 65.1885C586.823 67.7633 587.136 69.8968 587.761 71.5889C588.387 73.2441 589.325 74.7891 590.575 76.2236C591.863 77.6582 593.426 79.3503 595.265 81.2998L601.886 88.3071C605.381 91.9487 608.231 96.0317 610.438 100.556C612.682 105.044 613.804 110.267 613.804 116.226C613.804 121.597 613.271 126.213 612.204 130.075C611.174 133.938 609.317 136.917 606.631 139.014C603.946 141.074 600.102 142.104 595.1 142.104ZM643.323 142.104C638.468 142.104 634.624 141.037 631.792 138.903C628.996 136.77 626.991 133.551 625.777 129.248C624.6 124.944 624.012 119.555 624.012 113.081V70.2646C624.012 64.6735 624.563 59.818 625.667 55.6982C626.771 51.5785 628.738 48.3783 631.571 46.0977C634.403 43.8171 638.413 42.6768 643.599 42.6768C647.498 42.6768 650.68 43.3389 653.145 44.6631C655.609 45.9505 657.503 47.8081 658.828 50.2358C660.189 52.6268 661.127 55.5143 661.642 58.8984C662.157 62.2826 662.414 66.0713 662.414 70.2646V113.081C662.414 119.555 661.826 124.944 660.648 129.248C659.508 133.551 657.54 136.77 654.745 138.903C651.986 141.037 648.179 142.104 643.323 142.104ZM643.323 132.282C645.42 132.282 647.02 131.694 648.124 130.517C649.227 129.303 649.981 127.298 650.386 124.502C650.79 121.707 650.993 117.937 650.993 113.191V69.6025C650.993 63.7907 650.533 59.487 649.613 56.6914C648.694 53.8958 646.689 52.498 643.599 52.498C640.399 52.498 638.229 53.8958 637.088 56.6914C635.985 59.4502 635.433 63.7355 635.433 69.5474V113.191C635.433 117.973 635.635 121.762 636.04 124.558C636.445 127.316 637.217 129.303 638.357 130.517C639.498 131.694 641.153 132.282 643.323 132.282ZM695.685 142.159C690.903 142.159 687.096 141.221 684.264 139.345C681.468 137.432 679.463 134.544 678.25 130.682C677.036 126.82 676.429 121.946 676.429 116.061V43.8906H687.85V115.785C687.85 119.279 687.979 122.277 688.236 124.778C688.494 127.28 689.174 129.192 690.278 130.517C691.381 131.841 693.184 132.503 695.685 132.503C698.223 132.503 700.026 131.841 701.092 130.517C702.159 129.192 702.803 127.298 703.023 124.833C703.281 122.332 703.41 119.334 703.41 115.84V43.8906H714.776V116.061C714.776 121.946 714.187 126.82 713.01 130.682C711.833 134.544 709.847 137.432 707.051 139.345C704.292 141.221 700.504 142.159 695.685 142.159ZM729.839 141V43.8906H750.199C755.348 43.8906 759.156 44.8102 761.62 46.6494C764.085 48.4518 765.685 51.1922 766.42 54.8706C767.193 58.5122 767.579 63.1102 767.579 68.6646C767.579 74.6603 766.972 79.4238 765.758 82.9551C764.544 86.4863 762.19 88.7669 758.696 89.7969C760.461 90.0911 761.914 90.8452 763.055 92.0591C764.232 93.2729 765.151 95.1673 765.813 97.7422C766.476 100.317 766.935 103.775 767.193 108.115C767.487 112.419 767.634 117.845 767.634 124.392C767.634 125.017 767.634 125.919 767.634 127.096C767.634 128.273 767.653 129.56 767.689 130.958C767.726 132.356 767.763 133.735 767.8 135.096C767.873 136.457 767.965 137.671 768.076 138.738C768.186 139.768 768.333 140.522 768.517 141H757.151C757.004 140.669 756.875 139.933 756.765 138.793C756.654 137.653 756.562 136.145 756.489 134.269C756.415 132.393 756.36 130.167 756.323 127.592C756.286 124.981 756.268 122.075 756.268 118.875C756.268 115.638 756.268 112.106 756.268 108.281C756.268 104.602 756.103 101.807 755.771 99.894C755.477 97.9445 754.742 96.6019 753.564 95.8662C752.424 95.0938 750.585 94.634 748.047 94.4868L741.26 94.1006V141H729.839ZM741.26 85.7139H748.543C750.64 85.7139 752.24 85.3092 753.344 84.5C754.484 83.654 755.257 81.9987 755.661 79.5342C756.066 77.0329 756.268 73.2993 756.268 68.3335V67.6714C756.268 63.5516 756.066 60.4434 755.661 58.3467C755.293 56.2132 754.558 54.7786 753.454 54.043C752.351 53.3073 750.677 52.9395 748.433 52.9395H741.26V85.7139ZM799.691 142.159C794.983 142.159 791.231 141.018 788.436 138.738C785.64 136.42 783.635 133.036 782.421 128.585C781.208 124.135 780.601 118.727 780.601 112.364V71.9199C780.601 67.653 780.876 63.7539 781.428 60.2227C781.98 56.6546 782.955 53.5832 784.353 51.0083C785.787 48.3966 787.773 46.3919 790.312 44.9941C792.85 43.5596 796.105 42.8423 800.078 42.8423C803.866 42.8423 806.956 43.5228 809.347 44.8838C811.738 46.208 813.596 48.1208 814.92 50.6221C816.244 53.0866 817.145 56.0293 817.624 59.4502C818.139 62.8343 818.396 66.5863 818.396 70.7061V81.4653H807.195V70.6509C807.195 64.6183 806.754 60.1123 805.871 57.1328C805.025 54.1165 803.094 52.6084 800.078 52.6084C796.877 52.6084 794.726 54.1533 793.622 57.2432C792.555 60.2962 792.022 64.7471 792.022 70.5957V112.64C792.022 117.348 792.224 121.174 792.629 124.116C793.034 127.022 793.788 129.137 794.891 130.461C796.031 131.786 797.65 132.448 799.747 132.448C802.8 132.448 804.804 130.903 805.761 127.813C806.717 124.723 807.195 119.647 807.195 112.584V101.825H818.506V112.474C818.506 118.948 817.936 124.392 816.796 128.806C815.692 133.22 813.78 136.549 811.058 138.793C808.336 141.037 804.547 142.159 799.691 142.159ZM832.355 141V43.8906H861.378V53.3809H843.777V86.5967H860.44V96.0869H843.777V131.51H861.599V141H832.355ZM901.325 141V43.8906H918.871C923.837 43.8906 927.681 44.6263 930.403 46.0977C933.125 47.569 935.038 49.9048 936.141 53.105C937.245 56.3052 937.815 60.5169 937.852 65.7402V67.8369C937.852 73.2441 937.337 77.6582 936.307 81.0791C935.313 84.4632 933.382 86.9093 930.513 88.4175C932.831 89.3371 934.633 90.9372 935.92 93.2178C937.208 95.4984 938.109 98.2388 938.624 101.439C939.176 104.639 939.452 108.078 939.452 111.757V113.798C939.378 120.125 938.734 125.293 937.521 129.303C936.343 133.312 934.375 136.273 931.617 138.186C928.858 140.062 925.088 141 920.306 141H901.325ZM912.747 131.786H919.754C921.924 131.786 923.598 131.252 924.775 130.186C925.952 129.119 926.78 127.261 927.258 124.613C927.736 121.928 927.975 118.212 927.975 113.467V110.102C927.975 104.106 927.497 99.8021 926.541 97.1904C925.584 94.542 923.524 93.2178 920.361 93.2178H912.747V131.786ZM912.747 84.4448H919.202C920.747 84.4448 921.998 84.2793 922.954 83.9482C923.91 83.5804 924.646 82.8631 925.161 81.7964C925.713 80.7297 926.081 79.1479 926.265 77.0513C926.449 74.9546 926.541 72.1406 926.541 68.6094V65.9058C926.541 62.2274 926.265 59.487 925.713 57.6846C925.161 55.8822 924.278 54.6867 923.064 54.0981C921.887 53.5096 920.324 53.2153 918.375 53.2153H912.747V84.4448ZM970.185 142.104C965.329 142.104 961.485 141.037 958.653 138.903C955.857 136.77 953.853 133.551 952.639 129.248C951.462 124.944 950.873 119.555 950.873 113.081V70.2646C950.873 64.6735 951.425 59.818 952.528 55.6982C953.632 51.5785 955.6 48.3783 958.432 46.0977C961.264 43.8171 965.274 42.6768 970.46 42.6768C974.36 42.6768 977.541 43.3389 980.006 44.6631C982.47 45.9505 984.365 47.8081 985.689 50.2358C987.05 52.6268 987.988 55.5143 988.503 58.8984C989.018 62.2826 989.275 66.0713 989.275 70.2646V113.081C989.275 119.555 988.687 124.944 987.51 129.248C986.369 133.551 984.402 136.77 981.606 138.903C978.847 141.037 975.04 142.104 970.185 142.104ZM970.185 132.282C972.281 132.282 973.881 131.694 974.985 130.517C976.088 129.303 976.842 127.298 977.247 124.502C977.652 121.707 977.854 117.937 977.854 113.191V69.6025C977.854 63.7907 977.394 59.487 976.475 56.6914C975.555 53.8958 973.55 52.498 970.46 52.498C967.26 52.498 965.09 53.8958 963.95 56.6914C962.846 59.4502 962.294 63.7355 962.294 69.5474V113.191C962.294 117.973 962.497 121.762 962.901 124.558C963.306 127.316 964.078 129.303 965.219 130.517C966.359 131.694 968.014 132.282 970.185 132.282ZM1022.27 142.104C1017.42 142.104 1013.57 141.037 1010.74 138.903C1007.94 136.77 1005.94 133.551 1004.72 129.248C1003.55 124.944 1002.96 119.555 1002.96 113.081V70.2646C1002.96 64.6735 1003.51 59.818 1004.61 55.6982C1005.72 51.5785 1007.69 48.3783 1010.52 46.0977C1013.35 43.8171 1017.36 42.6768 1022.55 42.6768C1026.45 42.6768 1029.63 43.3389 1032.09 44.6631C1034.56 45.9505 1036.45 47.8081 1037.77 50.2358C1039.14 52.6268 1040.07 55.5143 1040.59 58.8984C1041.1 62.2826 1041.36 66.0713 1041.36 70.2646V113.081C1041.36 119.555 1040.77 124.944 1039.6 129.248C1038.46 133.551 1036.49 136.77 1033.69 138.903C1030.93 141.037 1027.13 142.104 1022.27 142.104ZM1022.27 132.282C1024.37 132.282 1025.97 131.694 1027.07 130.517C1028.17 129.303 1028.93 127.298 1029.33 124.502C1029.74 121.707 1029.94 117.937 1029.94 113.191V69.6025C1029.94 63.7907 1029.48 59.487 1028.56 56.6914C1027.64 53.8958 1025.64 52.498 1022.55 52.498C1019.35 52.498 1017.18 53.8958 1016.04 56.6914C1014.93 59.4502 1014.38 63.7355 1014.38 69.5474V113.191C1014.38 117.973 1014.58 121.762 1014.99 124.558C1015.39 127.316 1016.16 129.303 1017.3 130.517C1018.44 131.694 1020.1 132.282 1022.27 132.282ZM1056.15 141V43.8906H1067.57V90.1831L1084.84 43.8906H1096.32L1078.22 91.8384L1097.59 141H1085.67L1067.68 94.542V141H1056.15ZM1106.36 141V43.8906H1117.78V90.1831L1135.05 43.8906H1146.53L1128.43 91.8384L1147.8 141H1135.88L1117.89 94.542V141H1106.36ZM1156.57 141V43.8906H1185.59V53.3809H1167.99V86.5967H1184.65V96.0869H1167.99V131.51H1185.81V141H1156.57ZM1198.28 141V43.8906H1227.3V53.3809H1209.7V86.5967H1226.37V96.0869H1209.7V131.51H1227.52V141H1198.28ZM1239.99 141V43.8906H1259.53C1263.39 43.8906 1266.52 44.5343 1268.91 45.8218C1271.33 47.1092 1273.19 48.9668 1274.48 51.3945C1275.77 53.8223 1276.63 56.7466 1277.07 60.1675C1277.55 63.5884 1277.79 67.4323 1277.79 71.6992V73.189C1277.79 79.6997 1277.27 85.1621 1276.24 89.5762C1275.25 93.9902 1273.43 97.3192 1270.78 99.563C1268.17 101.77 1264.42 102.874 1259.53 102.874H1251.42V141H1239.99ZM1251.42 93.3833H1258.37C1260.61 93.3833 1262.3 92.758 1263.44 91.5073C1264.58 90.2199 1265.36 88.1048 1265.76 85.1621C1266.2 82.2194 1266.42 78.2284 1266.42 73.189V71.313C1266.42 65.0597 1265.95 60.4434 1264.99 57.4639C1264.03 54.4476 1261.92 52.9395 1258.64 52.9395H1251.42V93.3833ZM1289.32 141V43.8906H1300.74V141H1289.32ZM1316.69 141V43.8906H1325.3L1347.81 109.991L1346.65 81.9067V43.8906H1356.75V141H1348.36L1326.56 74.3477L1327.23 98.8457V141H1316.69ZM1389.02 141.938C1383.4 141.938 1379.07 139.621 1376.06 134.986C1373.04 130.351 1371.53 122.718 1371.53 112.088V71.3682C1371.53 67.1012 1371.83 63.2389 1372.42 59.7812C1373.04 56.2868 1374.09 53.2705 1375.56 50.7324C1377.03 48.1943 1379.04 46.2448 1381.58 44.8838C1384.15 43.5228 1387.39 42.8423 1391.29 42.8423C1395.33 42.8423 1398.55 43.5412 1400.94 44.939C1403.37 46.3 1405.21 48.2495 1406.46 50.7876C1407.71 53.3257 1408.54 56.3604 1408.94 59.8916C1409.35 63.4229 1409.55 67.3219 1409.55 71.5889V79.0928H1398.51V66.4575C1398.51 61.7492 1398.04 58.2731 1397.08 56.0293C1396.16 53.7487 1394.23 52.6084 1391.29 52.6084C1388.16 52.6084 1385.99 53.951 1384.78 56.6362C1383.56 59.3215 1382.95 64.0666 1382.95 70.8716V111.702C1382.95 119.132 1383.45 124.447 1384.44 127.647C1385.47 130.848 1387.64 132.448 1390.96 132.448C1394.12 132.448 1396.25 130.848 1397.36 127.647C1398.5 124.41 1399.07 119.022 1399.07 111.481V98.8457H1391.18V90.0176H1409.55V141H1403.54L1401.99 133.496C1400.96 136.218 1399.32 138.315 1397.08 139.786C1394.87 141.221 1392.19 141.938 1389.02 141.938Z" fill="#181F29"/>
<path d="M479.93 235H475.682L474.598 201.689L459.891 228.174H456.961L442.752 201.689L441.551 235H437.273L439.031 192.812H441.961L458.396 222.871L475.447 192.812H478.318L479.93 235ZM516.701 198.701L507.15 221.611H526.252L516.701 198.701ZM531.759 235L527.804 225.449H505.597L501.642 235H497.072L514.914 192.812H518.576L536.33 235H531.759ZM586.284 235H581.187L567.388 216.396L553.823 235H549.048L564.751 213.701L549.4 192.812H554.556L567.505 210.713L580.308 192.812H585.083L570.288 213.35L586.284 235ZM604.276 235V192.812H608.524V235H604.276ZM674.006 235H669.758L668.674 201.689L653.967 228.174H651.038L636.829 201.689L635.627 235H631.35L633.108 192.812H636.038L652.473 222.871L669.524 192.812H672.395L674.006 235ZM696.744 235V192.812H700.992V235H696.744ZM735.537 235.527C729.502 235.527 724.541 234.111 720.654 231.279L722.939 227.617C726.416 230.293 730.546 231.631 735.332 231.631C738.339 231.631 740.742 230.947 742.539 229.58C744.336 228.193 745.234 226.309 745.234 223.926C745.234 221.543 744.443 219.668 742.861 218.301C741.298 216.914 738.515 215.781 734.511 214.902C730.507 214.023 727.461 212.666 725.371 210.83C723.3 208.975 722.265 206.475 722.265 203.33C722.265 200.166 723.535 197.539 726.074 195.449C728.613 193.34 731.806 192.285 735.654 192.285C741.142 192.285 745.42 193.564 748.486 196.123L746.318 199.434C744.755 198.281 743.193 197.441 741.63 196.914C740.087 196.387 738.027 196.123 735.449 196.123C732.871 196.123 730.732 196.768 729.033 198.057C727.353 199.326 726.513 201.016 726.513 203.125C726.513 205.234 727.275 206.865 728.798 208.018C730.322 209.17 733.076 210.215 737.06 211.152C741.045 212.09 744.111 213.535 746.259 215.488C748.408 217.402 749.482 220.156 749.482 223.75C749.502 227.344 748.183 230.205 745.527 232.334C742.871 234.463 739.541 235.527 735.537 235.527ZM797.064 196.65H774.066V211.65H794.163V215.488H774.066V231.162H797.064V235H769.818V192.812H797.064V196.65ZM857.745 217.246C861.299 217.246 864.161 216.348 866.329 214.551C868.496 212.754 869.58 210.234 869.58 206.992C869.58 203.75 868.487 201.221 866.299 199.404C864.112 197.588 861.26 196.67 857.745 196.65H848.37V217.246H857.745ZM857.862 192.812C862.705 192.812 866.631 194.043 869.639 196.504C872.647 198.965 874.141 202.461 874.121 206.992C874.121 211.523 872.608 215 869.58 217.422C866.553 219.863 862.608 221.084 857.745 221.084H848.37V235H844.121V192.812H857.862ZM897.855 217.305H906.557C910.326 217.305 913.314 216.377 915.521 214.521C917.748 212.646 918.861 210.088 918.861 206.846C918.861 203.584 917.768 201.074 915.58 199.316C913.412 197.539 910.551 196.65 906.996 196.65H897.855V217.305ZM906.557 221.143H897.855V235H893.607V192.812H907.113C912.035 192.812 915.951 194.014 918.861 196.416C921.791 198.818 923.256 202.363 923.256 207.051C923.256 210.137 922.455 212.793 920.854 215.02C919.252 217.227 917.006 218.867 914.115 219.941L924.457 235H919.096L909.516 220.967C908.559 221.084 907.572 221.143 906.557 221.143ZM951.179 226.621C954.519 229.961 958.699 231.631 963.718 231.631C968.738 231.631 972.908 229.961 976.228 226.621C979.548 223.281 981.209 219.082 981.209 214.023C981.209 208.965 979.539 204.727 976.199 201.309C972.859 197.891 968.699 196.182 963.718 196.182C958.738 196.182 954.568 197.891 951.209 201.309C947.849 204.727 946.17 208.965 946.17 214.023C946.17 219.082 947.839 223.281 951.179 226.621ZM979.363 229.375C975.281 233.477 970.076 235.527 963.748 235.527C957.42 235.527 952.185 233.477 948.045 229.375C943.904 225.254 941.834 220.127 941.834 213.994C941.834 207.842 943.904 202.686 948.045 198.525C952.185 194.365 957.41 192.285 963.718 192.285C970.027 192.285 975.232 194.355 979.334 198.496C983.455 202.637 985.515 207.793 985.515 213.965C985.515 220.137 983.464 225.273 979.363 229.375ZM1020.5 231.162C1025.77 231.162 1030 229.58 1033.18 226.416C1036.37 223.252 1037.96 219.092 1037.96 213.936C1037.96 208.779 1036.37 204.609 1033.18 201.426C1030.02 198.242 1025.79 196.65 1020.5 196.65H1010.3V231.162H1020.5ZM1020.32 192.812C1026.92 192.812 1032.25 194.746 1036.29 198.613C1040.33 202.48 1042.35 207.578 1042.35 213.906C1042.35 220.215 1040.33 225.312 1036.29 229.199C1032.25 233.066 1026.92 235 1020.32 235H1006.06V192.812H1020.32ZM1092.4 230.928C1089.29 233.994 1085.07 235.527 1079.74 235.527C1074.41 235.527 1070.16 233.984 1067 230.898C1063.83 227.793 1062.25 223.457 1062.25 217.891V192.812H1066.7V218.213C1066.7 222.217 1067.9 225.43 1070.28 227.852C1072.66 230.254 1075.86 231.455 1079.89 231.455C1083.93 231.455 1087.1 230.244 1089.41 227.822C1091.71 225.4 1092.87 222.197 1092.87 218.213V192.812H1097.06V217.891C1097.06 223.496 1095.5 227.842 1092.4 230.928ZM1139.04 235.527C1132.48 235.527 1127.15 233.516 1123.05 229.492C1118.94 225.449 1116.89 220.273 1116.89 213.965C1116.89 207.656 1118.96 202.471 1123.1 198.408C1127.24 194.326 1132.56 192.285 1139.04 192.285C1144.49 192.285 1149.05 193.564 1152.72 196.123L1150.61 199.551C1147.98 197.305 1144.31 196.182 1139.6 196.182C1134.11 196.182 1129.68 197.812 1126.3 201.074C1122.92 204.336 1121.23 208.604 1121.23 213.877C1121.23 219.15 1122.9 223.428 1126.24 226.709C1129.58 229.99 1134.03 231.631 1139.6 231.631C1143.91 231.631 1147.64 230.596 1150.76 228.525L1152.72 231.895C1149.21 234.316 1144.65 235.527 1139.04 235.527ZM1200.04 192.812V196.65H1185.66V235H1181.32V196.65H1166.64V192.812H1200.04ZM1218.24 235V192.812H1222.49V235H1218.24ZM1274.43 192.812H1279.09L1261.51 235H1258.47L1240.89 192.812H1245.69L1260.08 228.584L1263.27 220.791L1274.43 192.812ZM1297.46 235V192.812H1301.71V235H1297.46ZM1353.39 192.812V196.65H1339.01V235H1334.67V196.65H1320V192.812H1353.39ZM1386.88 235H1382.64V218.271L1366.79 192.812H1371.94L1384.92 214.17L1397.99 192.812H1402.91L1386.88 218.389V235Z" fill="#858585"/>
<path d="M334.833 6.00001C334.833 3.23859 337.072 1 339.833 1H394.583C397.345 1 399.583 3.23858 399.583 6V281.583H334.833V6.00001Z" fill="#00AD7F"/>
<path d="M260 61C260 58.7909 261.791 57 264 57H320.75C322.959 57 324.75 58.7909 324.75 61V281.467H260V61Z" fill="#0090BC"/>
<path d="M185 106C185 103.791 186.791 102 189 102H245.75C247.959 102 249.75 103.791 249.75 106V281.573H185V106Z" fill="#00AD7F"/>
<path d="M175.573 37C177.783 37 179.573 38.7909 179.573 41L179.573 97.75C179.573 99.9591 177.783 101.75 175.573 101.75L2.76873e-05 101.75L3.05176e-05 37L175.573 37Z" fill="#00AD7F"/>
<path d="M48.5625 152.394L0 197.788L3.96848e-06 107L48.5625 152.394Z" fill="#0090BC"/>
<path d="M134.394 233L179.788 281.562H89L134.394 233Z" fill="#00AD7F"/>
</svg>
