<svg width="1366" height="235" viewBox="0 0 1366 235" fill="none" xmlns="http://www.w3.org/2000/svg">
<g clip-path="url(#clip0_181_267)">
<path d="M407.153 120.104C402.298 120.104 398.454 119.037 395.622 116.903C392.826 114.77 390.821 111.551 389.607 107.248C388.43 102.944 387.842 97.555 387.842 91.0811V48.2646C387.842 42.6735 388.394 37.818 389.497 33.6982C390.601 29.5785 392.569 26.3783 395.401 24.0977C398.233 21.8171 402.243 20.6768 407.429 20.6768C411.328 20.6768 414.51 21.3389 416.975 22.6631C419.439 23.9505 421.333 25.8081 422.658 28.2358C424.019 30.6268 424.957 33.5143 425.472 36.8984C425.987 40.2826 426.244 44.0713 426.244 48.2646V91.0811C426.244 97.555 425.656 102.944 424.479 107.248C423.338 111.551 421.37 114.77 418.575 116.903C415.816 119.037 412.009 120.104 407.153 120.104ZM407.153 110.282C409.25 110.282 410.85 109.694 411.954 108.517C413.057 107.303 413.811 105.298 414.216 102.502C414.62 99.7069 414.823 95.9365 414.823 91.1914V47.6025C414.823 41.7907 414.363 37.487 413.443 34.6914C412.524 31.8958 410.519 30.498 407.429 30.498C404.229 30.498 402.059 31.8958 400.918 34.6914C399.815 37.4502 399.263 41.7355 399.263 47.5474V91.1914C399.263 95.9733 399.465 99.762 399.87 102.558C400.275 105.316 401.047 107.303 402.188 108.517C403.328 109.694 404.983 110.282 407.153 110.282ZM459.515 120.159C454.733 120.159 450.926 119.221 448.094 117.345C445.298 115.432 443.293 112.544 442.08 108.682C440.866 104.82 440.259 99.946 440.259 94.0605V21.8906H451.68V93.7847C451.68 97.2791 451.809 100.277 452.066 102.778C452.324 105.28 453.004 107.192 454.108 108.517C455.211 109.841 457.014 110.503 459.515 110.503C462.053 110.503 463.856 109.841 464.922 108.517C465.989 107.192 466.633 105.298 466.854 102.833C467.111 100.332 467.24 97.3343 467.24 93.8398V21.8906H478.606V94.0605C478.606 99.946 478.017 104.82 476.84 108.682C475.663 112.544 473.677 115.432 470.881 117.345C468.123 119.221 464.334 120.159 459.515 120.159ZM497.752 119V31.3809H487.048V21.8906H519.105V31.3809H509.118V119H497.752ZM544.1 120.104C540.164 120.104 536.964 119.405 534.499 118.007C532.035 116.572 530.14 114.549 528.816 111.938C527.492 109.326 526.572 106.254 526.057 102.723C525.579 99.1551 525.34 95.2192 525.34 90.9155V81.4805H536.43V91.3569C536.43 98.1619 536.908 103.036 537.865 105.979C538.858 108.884 540.973 110.337 544.21 110.337C546.454 110.337 548.091 109.822 549.121 108.792C550.187 107.726 550.868 106.034 551.162 103.716C551.456 101.399 551.604 98.3459 551.604 94.5571C551.604 90.2166 550.831 86.4831 549.286 83.3564C547.778 80.2298 545.589 77.2319 542.72 74.3628L536.375 68.0176C534.536 66.1416 532.733 64.1001 530.968 61.8931C529.202 59.6493 527.731 57.1112 526.554 54.2788C525.413 51.4465 524.843 48.2095 524.843 44.5679C524.843 39.6756 525.358 35.4455 526.388 31.8774C527.418 28.3094 529.294 25.5506 532.016 23.6011C534.738 21.6515 538.6 20.6768 543.603 20.6768C547.539 20.6768 550.684 21.3573 553.038 22.7183C555.429 24.0793 557.213 26.0288 558.39 28.5669C559.604 31.0682 560.395 34.0477 560.763 37.5054C561.167 40.9631 561.37 44.7886 561.37 48.9819V54.7202H550.445V48.2095C550.445 44.2736 550.279 40.9998 549.948 38.3882C549.654 35.7397 549.029 33.7534 548.072 32.4292C547.116 31.105 545.626 30.4429 543.603 30.4429C541.764 30.4429 540.256 30.9027 539.079 31.8223C537.938 32.7051 537.111 34.0845 536.596 35.9604C536.081 37.8364 535.823 40.2458 535.823 43.1885C535.823 45.7633 536.136 47.8968 536.761 49.5889C537.387 51.2441 538.325 52.7891 539.575 54.2236C540.863 55.6582 542.426 57.3503 544.265 59.2998L550.886 66.3071C554.381 69.9487 557.231 74.0317 559.438 78.5562C561.682 83.0438 562.804 88.2671 562.804 94.2261C562.804 99.5965 562.271 104.213 561.204 108.075C560.174 111.938 558.317 114.917 555.631 117.014C552.946 119.074 549.102 120.104 544.1 120.104ZM592.323 120.104C587.468 120.104 583.624 119.037 580.792 116.903C577.996 114.77 575.991 111.551 574.777 107.248C573.6 102.944 573.012 97.555 573.012 91.0811V48.2646C573.012 42.6735 573.563 37.818 574.667 33.6982C575.771 29.5785 577.738 26.3783 580.571 24.0977C583.403 21.8171 587.413 20.6768 592.599 20.6768C596.498 20.6768 599.68 21.3389 602.145 22.6631C604.609 23.9505 606.503 25.8081 607.828 28.2358C609.189 30.6268 610.127 33.5143 610.642 36.8984C611.157 40.2826 611.414 44.0713 611.414 48.2646V91.0811C611.414 97.555 610.826 102.944 609.648 107.248C608.508 111.551 606.54 114.77 603.745 116.903C600.986 119.037 597.179 120.104 592.323 120.104ZM592.323 110.282C594.42 110.282 596.02 109.694 597.124 108.517C598.227 107.303 598.981 105.298 599.386 102.502C599.79 99.7069 599.993 95.9365 599.993 91.1914V47.6025C599.993 41.7907 599.533 37.487 598.613 34.6914C597.694 31.8958 595.689 30.498 592.599 30.498C589.399 30.498 587.229 31.8958 586.088 34.6914C584.985 37.4502 584.433 41.7355 584.433 47.5474V91.1914C584.433 95.9733 584.635 99.762 585.04 102.558C585.445 105.316 586.217 107.303 587.357 108.517C588.498 109.694 590.153 110.282 592.323 110.282ZM644.685 120.159C639.903 120.159 636.096 119.221 633.264 117.345C630.468 115.432 628.463 112.544 627.25 108.682C626.036 104.82 625.429 99.946 625.429 94.0605V21.8906H636.85V93.7847C636.85 97.2791 636.979 100.277 637.236 102.778C637.494 105.28 638.174 107.192 639.278 108.517C640.381 109.841 642.184 110.503 644.685 110.503C647.223 110.503 649.026 109.841 650.092 108.517C651.159 107.192 651.803 105.298 652.023 102.833C652.281 100.332 652.41 97.3343 652.41 93.8398V21.8906H663.776V94.0605C663.776 99.946 663.187 104.82 662.01 108.682C660.833 112.544 658.847 115.432 656.051 117.345C653.292 119.221 649.504 120.159 644.685 120.159ZM678.839 119V21.8906H699.199C704.348 21.8906 708.156 22.8102 710.62 24.6494C713.085 26.4518 714.685 29.1922 715.42 32.8706C716.193 36.5122 716.579 41.1102 716.579 46.6646C716.579 52.6603 715.972 57.4238 714.758 60.9551C713.544 64.4863 711.19 66.7669 707.696 67.7969C709.461 68.0911 710.914 68.8452 712.055 70.0591C713.232 71.2729 714.151 73.1673 714.813 75.7422C715.476 78.3171 715.935 81.7747 716.193 86.1152C716.487 90.4189 716.634 95.8446 716.634 102.392C716.634 103.017 716.634 103.919 716.634 105.096C716.634 106.273 716.653 107.56 716.689 108.958C716.726 110.356 716.763 111.735 716.8 113.096C716.873 114.457 716.965 115.671 717.076 116.738C717.186 117.768 717.333 118.522 717.517 119H706.151C706.004 118.669 705.875 117.933 705.765 116.793C705.654 115.653 705.562 114.145 705.489 112.269C705.415 110.393 705.36 108.167 705.323 105.592C705.286 102.981 705.268 100.075 705.268 96.8745C705.268 93.6375 705.268 90.1063 705.268 86.2808C705.268 82.6024 705.103 79.8068 704.771 77.894C704.477 75.9445 703.742 74.6019 702.564 73.8662C701.424 73.0938 699.585 72.634 697.047 72.4868L690.26 72.1006V119H678.839ZM690.26 63.7139H697.543C699.64 63.7139 701.24 63.3092 702.344 62.5C703.484 61.654 704.257 59.9987 704.661 57.5342C705.066 55.0329 705.268 51.2993 705.268 46.3335V45.6714C705.268 41.5516 705.066 38.4434 704.661 36.3467C704.293 34.2132 703.558 32.7786 702.454 32.043C701.351 31.3073 699.677 30.9395 697.433 30.9395H690.26V63.7139ZM748.691 120.159C743.983 120.159 740.231 119.018 737.436 116.738C734.64 114.42 732.635 111.036 731.421 106.585C730.208 102.135 729.601 96.7274 729.601 90.3638V49.9199C729.601 45.653 729.876 41.7539 730.428 38.2227C730.98 34.6546 731.955 31.5832 733.353 29.0083C734.787 26.3966 736.773 24.3919 739.312 22.9941C741.85 21.5596 745.105 20.8423 749.078 20.8423C752.866 20.8423 755.956 21.5228 758.347 22.8838C760.738 24.208 762.596 26.1208 763.92 28.6221C765.244 31.0866 766.145 34.0293 766.624 37.4502C767.139 40.8343 767.396 44.5863 767.396 48.7061V59.4653H756.195V48.6509C756.195 42.6183 755.754 38.1123 754.871 35.1328C754.025 32.1165 752.094 30.6084 749.078 30.6084C745.877 30.6084 743.726 32.1533 742.622 35.2432C741.555 38.2962 741.022 42.7471 741.022 48.5957V90.6396C741.022 95.348 741.224 99.1735 741.629 102.116C742.034 105.022 742.788 107.137 743.891 108.461C745.031 109.786 746.65 110.448 748.747 110.448C751.8 110.448 753.804 108.903 754.761 105.813C755.717 102.723 756.195 97.647 756.195 90.5845V79.8252H767.506V90.4741C767.506 96.9481 766.936 102.392 765.796 106.806C764.692 111.22 762.78 114.549 760.058 116.793C757.336 119.037 753.547 120.159 748.691 120.159ZM781.355 119V21.8906H810.378V31.3809H792.777V64.5967H809.44V74.0869H792.777V109.51H810.599V119H781.355ZM850.325 119V21.8906H867.871C872.837 21.8906 876.681 22.6263 879.403 24.0977C882.125 25.569 884.038 27.9048 885.141 31.105C886.245 34.3052 886.815 38.5169 886.852 43.7402V45.8369C886.852 51.2441 886.337 55.6582 885.307 59.0791C884.313 62.4632 882.382 64.9093 879.513 66.4175C881.831 67.3371 883.633 68.9372 884.92 71.2178C886.208 73.4984 887.109 76.2388 887.624 79.439C888.176 82.6392 888.452 86.0785 888.452 89.7568V91.7983C888.378 98.1252 887.734 103.293 886.521 107.303C885.343 111.312 883.375 114.273 880.617 116.186C877.858 118.062 874.088 119 869.306 119H850.325ZM861.747 109.786H868.754C870.924 109.786 872.598 109.252 873.775 108.186C874.952 107.119 875.78 105.261 876.258 102.613C876.736 99.9276 876.975 96.2124 876.975 91.4673V88.1016C876.975 82.1058 876.497 77.8021 875.541 75.1904C874.584 72.542 872.524 71.2178 869.361 71.2178H861.747V109.786ZM861.747 62.4448H868.202C869.747 62.4448 870.998 62.2793 871.954 61.9482C872.91 61.5804 873.646 60.8631 874.161 59.7964C874.713 58.7297 875.081 57.1479 875.265 55.0513C875.449 52.9546 875.541 50.1406 875.541 46.6094V43.9058C875.541 40.2274 875.265 37.487 874.713 35.6846C874.161 33.8822 873.278 32.6867 872.064 32.0981C870.887 31.5096 869.324 31.2153 867.375 31.2153H861.747V62.4448ZM919.185 120.104C914.329 120.104 910.485 119.037 907.653 116.903C904.857 114.77 902.853 111.551 901.639 107.248C900.462 102.944 899.873 97.555 899.873 91.0811V48.2646C899.873 42.6735 900.425 37.818 901.528 33.6982C902.632 29.5785 904.6 26.3783 907.432 24.0977C910.264 21.8171 914.274 20.6768 919.46 20.6768C923.36 20.6768 926.541 21.3389 929.006 22.6631C931.47 23.9505 933.365 25.8081 934.689 28.2358C936.05 30.6268 936.988 33.5143 937.503 36.8984C938.018 40.2826 938.275 44.0713 938.275 48.2646V91.0811C938.275 97.555 937.687 102.944 936.51 107.248C935.369 111.551 933.402 114.77 930.606 116.903C927.847 119.037 924.04 120.104 919.185 120.104ZM919.185 110.282C921.281 110.282 922.881 109.694 923.985 108.517C925.088 107.303 925.842 105.298 926.247 102.502C926.652 99.7069 926.854 95.9365 926.854 91.1914V47.6025C926.854 41.7907 926.394 37.487 925.475 34.6914C924.555 31.8958 922.55 30.498 919.46 30.498C916.26 30.498 914.09 31.8958 912.95 34.6914C911.846 37.4502 911.294 41.7355 911.294 47.5474V91.1914C911.294 95.9733 911.497 99.762 911.901 102.558C912.306 105.316 913.078 107.303 914.219 108.517C915.359 109.694 917.014 110.282 919.185 110.282ZM971.271 120.104C966.415 120.104 962.571 119.037 959.739 116.903C956.943 114.77 954.938 111.551 953.725 107.248C952.548 102.944 951.959 97.555 951.959 91.0811V48.2646C951.959 42.6735 952.511 37.818 953.614 33.6982C954.718 29.5785 956.686 26.3783 959.518 24.0977C962.35 21.8171 966.36 20.6768 971.546 20.6768C975.445 20.6768 978.627 21.3389 981.092 22.6631C983.556 23.9505 985.451 25.8081 986.775 28.2358C988.136 30.6268 989.074 33.5143 989.589 36.8984C990.104 40.2826 990.361 44.0713 990.361 48.2646V91.0811C990.361 97.555 989.773 102.944 988.596 107.248C987.455 111.551 985.487 114.77 982.692 116.903C979.933 119.037 976.126 120.104 971.271 120.104ZM971.271 110.282C973.367 110.282 974.967 109.694 976.071 108.517C977.174 107.303 977.928 105.298 978.333 102.502C978.738 99.7069 978.94 95.9365 978.94 91.1914V47.6025C978.94 41.7907 978.48 37.487 977.561 34.6914C976.641 31.8958 974.636 30.498 971.546 30.498C968.346 30.498 966.176 31.8958 965.036 34.6914C963.932 37.4502 963.38 41.7355 963.38 47.5474V91.1914C963.38 95.9733 963.583 99.762 963.987 102.558C964.392 105.316 965.164 107.303 966.305 108.517C967.445 109.694 969.1 110.282 971.271 110.282ZM1005.15 119V21.8906H1016.57V68.1831L1033.84 21.8906H1045.32L1027.22 69.8384L1046.59 119H1034.67L1016.68 72.542V119H1005.15ZM1055.36 119V21.8906H1066.78V68.1831L1084.05 21.8906H1095.53L1077.43 69.8384L1096.8 119H1084.88L1066.89 72.542V119H1055.36ZM1105.57 119V21.8906H1134.59V31.3809H1116.99V64.5967H1133.65V74.0869H1116.99V109.51H1134.81V119H1105.57ZM1147.28 119V21.8906H1176.3V31.3809H1158.7V64.5967H1175.37V74.0869H1158.7V109.51H1176.52V119H1147.28ZM1188.99 119V21.8906H1208.53C1212.39 21.8906 1215.52 22.5343 1217.91 23.8218C1220.33 25.1092 1222.19 26.9668 1223.48 29.3945C1224.77 31.8223 1225.63 34.7466 1226.07 38.1675C1226.55 41.5884 1226.79 45.4323 1226.79 49.6992V51.189C1226.79 57.6997 1226.27 63.1621 1225.24 67.5762C1224.25 71.9902 1222.43 75.3192 1219.78 77.563C1217.17 79.77 1213.42 80.8735 1208.53 80.8735H1200.42V119H1188.99ZM1200.42 71.3833H1207.37C1209.61 71.3833 1211.3 70.758 1212.44 69.5073C1213.58 68.2199 1214.36 66.1048 1214.76 63.1621C1215.2 60.2194 1215.42 56.2284 1215.42 51.189V49.313C1215.42 43.0597 1214.95 38.4434 1213.99 35.4639C1213.03 32.4476 1210.92 30.9395 1207.64 30.9395H1200.42V71.3833ZM1238.32 119V21.8906H1249.74V119H1238.32ZM1265.69 119V21.8906H1274.3L1296.81 87.9912L1295.65 59.9067V21.8906H1305.75V119H1297.36L1275.56 52.3477L1276.23 76.8457V119H1265.69ZM1338.02 119.938C1332.4 119.938 1328.07 117.621 1325.06 112.986C1322.04 108.351 1320.53 100.718 1320.53 90.0879V49.3682C1320.53 45.1012 1320.83 41.2389 1321.42 37.7812C1322.04 34.2868 1323.09 31.2705 1324.56 28.7324C1326.03 26.1943 1328.04 24.2448 1330.58 22.8838C1333.15 21.5228 1336.39 20.8423 1340.29 20.8423C1344.33 20.8423 1347.55 21.5412 1349.94 22.939C1352.37 24.3 1354.21 26.2495 1355.46 28.7876C1356.71 31.3257 1357.54 34.3604 1357.94 37.8916C1358.35 41.4229 1358.55 45.3219 1358.55 49.5889V57.0928H1347.51V44.4575C1347.51 39.7492 1347.04 36.2731 1346.08 34.0293C1345.16 31.7487 1343.23 30.6084 1340.29 30.6084C1337.16 30.6084 1334.99 31.951 1333.78 34.6362C1332.56 37.3215 1331.95 42.0666 1331.95 48.8716V89.7017C1331.95 97.132 1332.45 102.447 1333.44 105.647C1334.47 108.848 1336.64 110.448 1339.96 110.448C1343.12 110.448 1345.25 108.848 1346.36 105.647C1347.5 102.41 1348.07 97.0216 1348.07 89.481V76.8457H1340.18V68.0176H1358.55V119H1352.54L1350.99 111.496C1349.96 114.218 1348.32 116.315 1346.08 117.786C1343.87 119.221 1341.19 119.938 1338.02 119.938Z" fill="#181F29"/>
<path d="M428.93 205H424.682L423.598 171.689L408.891 198.174H405.961L391.752 171.689L390.551 205H386.273L388.031 162.812H390.961L407.396 192.871L424.447 162.812H427.318L428.93 205ZM465.701 168.701L456.15 191.611H475.252L465.701 168.701ZM480.759 205L476.804 195.449H454.597L450.642 205H446.072L463.914 162.812H467.576L485.33 205H480.759ZM535.284 205H530.187L516.388 186.396L502.823 205H498.048L513.751 183.701L498.4 162.812H503.556L516.505 180.713L529.308 162.812H534.083L519.288 183.35L535.284 205ZM553.276 205V162.812H557.524V205H553.276ZM623.006 205H618.758L617.674 171.689L602.967 198.174H600.038L585.829 171.689L584.627 205H580.35L582.108 162.812H585.038L601.473 192.871L618.524 162.812H621.395L623.006 205ZM645.744 205V162.812H649.992V205H645.744ZM684.537 205.527C678.502 205.527 673.541 204.111 669.654 201.279L671.939 197.617C675.416 200.293 679.546 201.631 684.332 201.631C687.339 201.631 689.742 200.947 691.539 199.58C693.336 198.193 694.234 196.309 694.234 193.926C694.234 191.543 693.443 189.668 691.861 188.301C690.298 186.914 687.515 185.781 683.511 184.902C679.507 184.023 676.461 182.666 674.371 180.83C672.3 178.975 671.265 176.475 671.265 173.33C671.265 170.166 672.535 167.539 675.074 165.449C677.613 163.34 680.806 162.285 684.654 162.285C690.142 162.285 694.42 163.564 697.486 166.123L695.318 169.434C693.755 168.281 692.193 167.441 690.63 166.914C689.087 166.387 687.027 166.123 684.449 166.123C681.871 166.123 679.732 166.768 678.033 168.057C676.353 169.326 675.513 171.016 675.513 173.125C675.513 175.234 676.275 176.865 677.798 178.018C679.322 179.17 682.076 180.215 686.06 181.152C690.045 182.09 693.111 183.535 695.259 185.488C697.408 187.402 698.482 190.156 698.482 193.75C698.502 197.344 697.183 200.205 694.527 202.334C691.871 204.463 688.541 205.527 684.537 205.527ZM746.064 166.65H723.066V181.65H743.163V185.488H723.066V201.162H746.064V205H718.818V162.812H746.064V166.65ZM806.745 187.246C810.299 187.246 813.161 186.348 815.329 184.551C817.496 182.754 818.58 180.234 818.58 176.992C818.58 173.75 817.487 171.221 815.299 169.404C813.112 167.588 810.26 166.67 806.745 166.65H797.37V187.246H806.745ZM806.862 162.812C811.705 162.812 815.631 164.043 818.639 166.504C821.647 168.965 823.141 172.461 823.121 176.992C823.121 181.523 821.608 185 818.58 187.422C815.553 189.863 811.608 191.084 806.745 191.084H797.37V205H793.121V162.812H806.862ZM846.855 187.305H855.557C859.326 187.305 862.314 186.377 864.521 184.521C866.748 182.646 867.861 180.088 867.861 176.846C867.861 173.584 866.768 171.074 864.58 169.316C862.412 167.539 859.551 166.65 855.996 166.65H846.855V187.305ZM855.557 191.143H846.855V205H842.607V162.812H856.113C861.035 162.812 864.951 164.014 867.861 166.416C870.791 168.818 872.256 172.363 872.256 177.051C872.256 180.137 871.455 182.793 869.854 185.02C868.252 187.227 866.006 188.867 863.115 189.941L873.457 205H868.096L858.516 190.967C857.559 191.084 856.572 191.143 855.557 191.143ZM900.179 196.621C903.519 199.961 907.699 201.631 912.718 201.631C917.738 201.631 921.908 199.961 925.228 196.621C928.548 193.281 930.209 189.082 930.209 184.023C930.209 178.965 928.539 174.727 925.199 171.309C921.859 167.891 917.699 166.182 912.718 166.182C907.738 166.182 903.568 167.891 900.209 171.309C896.849 174.727 895.17 178.965 895.17 184.023C895.17 189.082 896.839 193.281 900.179 196.621ZM928.363 199.375C924.281 203.477 919.076 205.527 912.748 205.527C906.42 205.527 901.185 203.477 897.045 199.375C892.904 195.254 890.834 190.127 890.834 183.994C890.834 177.842 892.904 172.686 897.045 168.525C901.185 164.365 906.41 162.285 912.718 162.285C919.027 162.285 924.232 164.355 928.334 168.496C932.455 172.637 934.515 177.793 934.515 183.965C934.515 190.137 932.464 195.273 928.363 199.375ZM969.499 201.162C974.773 201.162 979.001 199.58 982.185 196.416C985.368 193.252 986.96 189.092 986.96 183.936C986.96 178.779 985.368 174.609 982.185 171.426C979.021 168.242 974.792 166.65 969.499 166.65H959.304V201.162H969.499ZM969.323 162.812C975.925 162.812 981.247 164.746 985.29 168.613C989.333 172.48 991.355 177.578 991.355 183.906C991.355 190.215 989.333 195.312 985.29 199.199C981.247 203.066 975.925 205 969.323 205H955.056V162.812H969.323ZM1041.4 200.928C1038.29 203.994 1034.07 205.527 1028.74 205.527C1023.41 205.527 1019.16 203.984 1016 200.898C1012.83 197.793 1011.25 193.457 1011.25 187.891V162.812H1015.7V188.213C1015.7 192.217 1016.9 195.43 1019.28 197.852C1021.66 200.254 1024.86 201.455 1028.89 201.455C1032.93 201.455 1036.1 200.244 1038.41 197.822C1040.71 195.4 1041.87 192.197 1041.87 188.213V162.812H1046.06V187.891C1046.06 193.496 1044.5 197.842 1041.4 200.928ZM1088.04 205.527C1081.48 205.527 1076.15 203.516 1072.05 199.492C1067.94 195.449 1065.89 190.273 1065.89 183.965C1065.89 177.656 1067.96 172.471 1072.1 168.408C1076.24 164.326 1081.56 162.285 1088.04 162.285C1093.49 162.285 1098.05 163.564 1101.72 166.123L1099.61 169.551C1096.98 167.305 1093.31 166.182 1088.6 166.182C1083.11 166.182 1078.68 167.812 1075.3 171.074C1071.92 174.336 1070.23 178.604 1070.23 183.877C1070.23 189.15 1071.9 193.428 1075.24 196.709C1078.58 199.99 1083.03 201.631 1088.6 201.631C1092.91 201.631 1096.64 200.596 1099.76 198.525L1101.72 201.895C1098.21 204.316 1093.65 205.527 1088.04 205.527ZM1149.04 162.812V166.65H1134.66V205H1130.32V166.65H1115.64V162.812H1149.04ZM1167.24 205V162.812H1171.49V205H1167.24ZM1223.43 162.812H1228.09L1210.51 205H1207.47L1189.89 162.812H1194.69L1209.08 198.584L1212.27 190.791L1223.43 162.812ZM1246.46 205V162.812H1250.71V205H1246.46ZM1302.39 162.812V166.65H1288.01V205H1283.67V166.65H1269V162.812H1302.39ZM1335.88 205H1331.64V188.271L1315.79 162.812H1320.94L1333.92 184.17L1346.99 162.812H1351.91L1335.88 188.389V205Z" fill="#7A7A7A"/>
<path d="M196.918 31.0274V122.858C205.312 115.392 213.608 107.471 221.741 99.1508V33.8623C221.741 32.2955 220.473 31.0274 218.909 31.0274H196.918Z" fill="#2ECE76"/>
<path d="M159.388 56.7356H57.8921C56.5639 56.7356 55.4897 55.6621 55.4897 54.335C55.4897 53.0079 56.5639 51.9309 57.8921 51.9309H159.388C160.711 51.9309 161.788 53.0079 161.788 54.335C161.788 55.6621 160.711 56.7356 159.388 56.7356ZM159.388 73.1576H57.8921C56.5639 73.1576 55.4897 72.0806 55.4897 70.7535C55.4897 69.4264 56.5639 68.3529 57.8921 68.3529H159.388C160.711 68.3529 161.788 69.4264 161.788 70.7535C161.788 72.0806 160.711 73.1576 159.388 73.1576ZM159.388 89.5761H57.8921C56.5639 89.5761 55.4897 88.5026 55.4897 87.1755C55.4897 85.8484 56.5639 84.7714 57.8921 84.7714H159.388C160.711 84.7714 161.788 85.8484 161.788 87.1755C161.788 88.5026 160.711 89.5761 159.388 89.5761ZM27.5671 1.83117V192.405C68.8802 206.451 131.057 179.176 189.71 129.132V1.83117C189.71 0.267837 188.442 -1.0002 186.878 -1.0002H30.3992C28.8352 -1.0002 27.5671 0.267837 27.5671 1.83117Z" fill="#1958A7"/>
<path d="M196.918 207.983H181.462C165.196 218.575 149.024 226.924 133.419 232.805H218.909C220.473 232.805 221.741 231.537 221.741 229.974V177.213C213.524 184.436 205.232 191.127 196.918 197.251V207.983Z" fill="#2ECE76"/>
<path d="M189.71 200.778V188.747C183.922 193.034 178.127 197.046 172.343 200.778H189.71ZM196.918 183.251V197.251C205.232 191.127 213.524 184.436 221.741 177.213V162.066C213.545 169.667 205.253 176.74 196.918 183.251ZM97.6318 232.805H133.419C149.024 226.924 165.196 218.575 181.462 207.983H160.583C138.816 220.611 117.445 229.067 97.6318 232.805Z" fill="#00AD7F"/>
<path d="M302.649 34.2511L228.665 65.2677L248.328 79.5218C169.595 171.144 66.6433 226.854 15.5969 188.768C9.50927 184.227 4.31898 178.745 0 172.45C4.48921 192.985 14.0252 209.664 28.894 220.757C84.9698 262.599 195.64 209.123 276.075 101.315C276.35 100.95 276.61 100.582 276.881 100.22L296.19 114.214L302.649 34.2511Z" fill="#2ECE76"/>
</g>
<defs>
<clipPath id="clip0_181_267">
<rect width="1366" height="235" fill="white"/>
</clipPath>
</defs>
</svg>
